<?xml version="1.0" encoding="iso-8859-1"?>
<!-- Generator: Adobe Illustrator 19.0.0, SVG Export Plug-In . SVG Version: 6.00 Build 0)  -->
<svg version="1.1" id="Layer_1" xmlns="http://www.w3.org/2000/svg" xmlns:xlink="http://www.w3.org/1999/xlink" x="0px" y="0px"
	 viewBox="0 0 511.998 511.998" style="enable-background:new 0 0 511.998 511.998;" xml:space="preserve">
<g>
	<g>
		<circle cx="257.206" cy="31.449" r="31.449"/>
	</g>
</g>
<g>
	<g>
		<circle cx="87.003" cy="75.098" r="31.449"/>
	</g>
</g>
<g>
	<g>
		<circle cx="425.124" cy="118.85" r="31.45"/>
	</g>
</g>
<g>
	<g>
		<path d="M502.106,468.609h-49.425c7.305-2.37,12.589-9.222,12.589-17.315c0-23.424-0.331-256.024-0.331-255.07
			c0-1.751,1.417-3.171,3.167-3.176c1.751-0.004,3.175,1.408,3.183,3.16l0.56,111.479c0.042,8.355,6.827,15.098,15.173,15.098
			c0.024,0,0.051,0,0.077,0c8.381-0.042,15.141-6.871,15.097-15.25l-0.56-111.479c-0.098-19.702-16.207-35.731-35.909-35.731
			c-8.432,0-73.001,0-81.463,0c-19.701,0-35.81,16.028-35.909,35.729l-0.56,111.479c-0.043,8.381,6.716,15.208,15.099,15.25
			c0.026,0,0.051,0,0.077,0c8.344,0,15.131-6.743,15.173-15.098l0.56-111.479c0-0.012,0-0.024,0-0.038
			c0.019-1.611,1.336-2.905,2.947-2.895c1.611,0.01,2.912,1.319,2.912,2.93c0.001,36.871,0.007,245.827,0.007,255.086
			c0,8.094,5.284,14.945,12.589,17.315h-56.692c0-11.064,0-68.014,0-79.363c0-4.099-3.322-7.421-7.421-7.421h-50.848
			c8.602-1.454,15.158-8.919,15.158-17.933c0-132.899-0.321-126.105-0.33-255.068c0-1.751,1.416-3.171,3.167-3.176
			c1.751-0.006,3.176,1.407,3.185,3.159l0.559,111.48c0.042,8.355,6.827,15.098,15.173,15.098c0.024,0,0.051,0,0.077,0
			c8.381-0.042,15.141-6.871,15.098-15.25l-0.559-111.48c-0.1-19.701-16.208-35.729-35.909-35.729c-8.433,0-73.002,0-81.464,0
			c-19.701,0-35.81,16.028-35.909,35.731l-0.559,111.479c-0.043,8.38,6.716,15.208,15.098,15.25c0.026,0,0.051,0,0.077,0
			c8.344,0,15.131-6.744,15.173-15.098l0.559-111.479c0.009-1.617,1.323-2.919,2.938-2.915c1.616,0.004,2.922,1.316,2.922,2.93
			l0.008,255.068c0,9.014,6.557,16.48,15.158,17.933h-52.988c-4.099,0-7.421,3.322-7.421,7.421v35.971h-58.177
			c7.983-1.932,13.918-9.104,13.918-17.679c0-240.82-0.322-102.925-0.33-255.068c0-1.75,1.416-3.171,3.167-3.176
			c1.751-0.004,3.176,1.407,3.185,3.159l0.559,111.48c0.041,8.216,6.659,15.098,15.249,15.098
			c8.381-0.042,15.141-6.871,15.097-15.25l-0.559-111.48c-0.1-19.701-16.208-35.729-35.909-35.729c-8.433,0-73.002,0-81.464,0
			c-19.701,0-35.81,16.028-35.909,35.731L9.672,263.779c-0.043,8.38,6.716,15.208,15.099,15.25c0.026,0,0.051,0,0.077,0
			c8.344,0,15.131-6.744,15.173-15.098l0.559-111.479c0.009-1.617,1.324-2.92,2.938-2.916c1.616,0.004,2.922,1.316,2.922,2.93
			c0.001,35.547,0.007,230.586,0.007,255.068c0,8.575,5.935,15.748,13.918,17.679H9.89c-4.099,0-7.42,3.322-7.42,7.421
			c0,16.189,0,54.609,0,71.943c0,4.099,3.322,7.42,7.421,7.42c62.633,0,475.838,0,492.214,0c4.099,0,7.421-3.322,7.421-7.421V476.03
			h0C509.527,471.931,506.205,468.609,502.106,468.609z M68.948,425.216c7.981-1.932,13.917-9.104,13.917-17.679V261.989h7.862
			v145.548c0,8.575,5.935,15.748,13.918,17.679H68.948z M237.914,381.824c8.602-1.454,15.158-8.919,15.158-17.933V218.343h7.862
			V363.89c0,9.014,6.557,16.48,15.158,17.933H237.914z M408.4,468.609c7.303-2.37,12.589-9.222,12.589-17.315V305.746h7.863v145.548
			c0,8.094,5.284,14.945,12.589,17.315H408.4z"/>
	</g>
</g>
<g>
</g>
<g>
</g>
<g>
</g>
<g>
</g>
<g>
</g>
<g>
</g>
<g>
</g>
<g>
</g>
<g>
</g>
<g>
</g>
<g>
</g>
<g>
</g>
<g>
</g>
<g>
</g>
<g>
</g>
</svg>
